<svg width="142" height="206" viewBox="0 0 142 206" fill="none" xmlns="http://www.w3.org/2000/svg">
<path d="M11.2252 157.731C28.2202 169.013 46.6552 173.596 66.5312 171.481C77.8052 170.281 86.0772 167.457 91.3472 163.011C96.6082 158.482 98.9142 153.169 98.2652 147.072C97.7052 141.811 94.9222 137.082 89.9142 132.885C84.9072 128.689 72.3302 123.609 52.1862 117.645C20.5022 108.011 3.35321 90.917 0.739209 66.365C-1.18079 48.326 4.17817 33.6087 16.8162 22.2128C29.5292 10.7246 47.2022 3.77594 69.8342 1.36684C88.7912 -0.651063 104.962 0.119138 118.348 3.67734L122.481 42.5107C108.511 35.0451 92.7992 32.2413 75.3452 34.0992C65.1562 35.1837 57.2142 37.9295 51.5172 42.3365C45.8122 46.66 43.2932 51.9534 43.9602 58.217C44.4932 63.228 47.0742 67.64 51.7032 71.455C56.3232 75.186 67.2412 79.767 84.4582 85.198C104.629 91.412 118.795 98.73 126.955 107.152C135.199 115.565 139.996 126.119 141.347 138.813C143.329 157.436 138.243 172.335 126.088 183.511C113.933 194.686 95.7052 201.568 71.4032 204.154C49.1882 206.519 30.6002 204.866 15.6392 199.195L11.2252 157.731Z" fill="white"/>
</svg>
