<svg width="53" height="208" viewBox="0 0 53 208" fill="none" xmlns="http://www.w3.org/2000/svg">
<path d="M0.241724 23.171C-0.0662758 16.964 1.86572 11.823 6.03572 7.74774C10.2857 3.58474 15.8497 1.33254 22.7287 0.991342C29.7747 0.641742 35.5777 2.37184 40.1397 6.18174C44.6967 9.90774 47.1257 14.79 47.4257 20.83C47.7287 26.953 45.7607 32.18 41.5187 36.511C37.2727 40.758 31.7107 43.052 24.8317 43.393C18.0377 43.73 12.3157 41.954 7.66572 38.065C3.01672 34.175 0.541724 29.21 0.241724 23.171ZM12.3957 207.098L5.49072 67.939L46.0057 65.929L52.9097 205.088L12.3957 207.098Z" fill="white"/>
</svg>
