<svg width="53" height="208" viewBox="0 0 53 208" fill="none" xmlns="http://www.w3.org/2000/svg">
<path d="M0.23907 23.1709C-0.0709295 16.9637 1.86912 11.8227 6.03912 7.74774C10.2891 3.58474 15.8491 1.33254 22.7291 0.991342C29.7691 0.641742 35.5791 2.37184 40.1391 6.18174C44.6991 9.90774 47.1291 14.7904 47.4291 20.8298C47.7291 26.9531 45.7591 32.1802 41.5191 36.511C37.2691 40.7578 31.709 43.0519 24.829 43.3932C18.039 43.7303 12.3191 41.9541 7.66912 38.0645C3.01912 34.1749 0.53907 29.2104 0.23907 23.1709ZM12.3991 207.098L5.48907 67.939L46.0091 65.929L52.9091 205.088L12.3991 207.098Z" fill="white"/>
</svg>
