<svg width="136" height="144" viewBox="0 0 136 144" fill="none" xmlns="http://www.w3.org/2000/svg">
<path d="M11.5541 86.27C22.1131 98.713 33.7291 107.038 46.4031 111.245C62.3441 116.537 71.7301 114.919 74.5621 106.39C76.5731 100.333 71.6771 93.088 59.8751 84.657C45.1491 74.105 35.7491 64.702 31.6761 56.447C27.6291 48.113 27.3781 38.605 30.9241 27.924C35.2371 14.932 43.8711 6.51595 56.8271 2.67595C69.8091 -1.24405 84.829 -0.373051 101.886 5.28995C114.002 9.31195 125.083 14.982 135.131 22.3L125.05 52.668C116.779 43.197 106.466 36.41 94.1111 32.309C87.9741 30.272 82.6611 29.747 78.1741 30.735C73.7141 31.643 70.8881 33.891 69.6971 37.478C67.6861 43.536 71.6381 50.29 81.5541 57.741C92.1871 65.695 99.9501 72.2989 104.843 77.5509C109.816 82.8299 112.97 88.656 114.305 95.028C115.721 101.427 115.264 108.133 112.936 115.148C108.411 128.778 99.432 137.566 85.998 141.513C72.591 145.38 56.7611 144.284 38.5081 138.225C24.1611 133.462 11.644 126.784 0.957031 118.192L11.5541 86.27Z" fill="white"/>
</svg>
