<svg width="203" height="202" viewBox="0 0 203 202" fill="none" xmlns="http://www.w3.org/2000/svg">
<path d="M107.76 201.766L71.7703 183.056L80.8303 165.619L80.2804 165.329C64.4704 174.433 48.0303 174.55 30.9703 165.679C15.2403 157.505 5.61027 145.446 2.07027 129.501C-1.39973 113.594 1.84037 96.0661 11.8004 76.9151C22.3404 56.6461 36.0004 43.0191 52.7904 36.0341C69.6904 29.0131 86.5204 29.8601 103.29 38.5761C119.38 46.9431 127.61 58.6051 127.98 73.5611L128.54 73.8511L166.89 0.0791016L202.88 18.7891L107.76 201.766ZM108.7 113.375C113.04 105.029 114.09 96.8191 111.85 88.7451C109.73 80.6361 104.9 74.6251 97.3703 70.7121C88.5803 66.1411 79.8303 66.0411 71.1203 70.4111C62.5303 74.7461 55.1304 82.8751 48.9304 94.7981C43.0404 106.124 40.9104 116.139 42.5404 124.842C44.2104 133.47 49.2904 139.992 57.7804 144.408C65.7604 148.553 74.0003 148.721 82.5103 144.91C91.0203 141.1 97.9703 134.016 103.36 123.658L108.7 113.375Z" fill="white"/>
</svg>
