<svg width="154" height="150" viewBox="0 0 154 150" fill="none" xmlns="http://www.w3.org/2000/svg">
<path d="M9.24071 44.016C18.9707 23.255 32.8207 9.84801 50.7707 3.79501C68.8007 -2.22299 88.3108 -0.312991 109.301 9.52501C129.611 19.041 142.981 32.453 149.431 49.76C155.921 66.991 154.551 85.454 145.311 105.15C135.621 125.835 121.781 139.429 103.801 145.934C85.8208 152.439 66.3707 150.791 45.4607 140.989C24.9307 131.365 11.3607 117.864 4.76073 100.486C-1.72927 83.067 -0.239294 64.244 9.24071 44.016ZM46.7607 61.042C34.9607 86.213 39.3307 103.611 59.8607 113.234C79.5507 122.466 95.4607 114.154 107.581 88.298C119.131 63.66 114.981 46.689 95.1307 37.386C85.4707 32.859 76.3907 32.639 67.8907 36.724C59.4707 40.845 52.4207 48.951 46.7607 61.042Z" fill="white"/>
</svg>
